<svg version="1" xmlns="http://www.w3.org/2000/svg" viewBox="0 0 58 58" id = "Capa_1"><path d="M51 48a29 29 0 0 0-1-39c-5-5-12-9-20-9h-2A29 29 0 0 0 7 48c5 6 13 10 21 10h2c8 0 16-4 21-10zM2 30h12l2 12-8 4c-3-4-6-10-6-16zm7-19l8 4c-2 4-3 8-3 13H2c0-7 3-12 7-17zm47 17H44c0-5-1-9-3-13l8-4c4 5 7 10 7 17zM28 15l-8-1c2-4 4-8 8-11v12zm0 2v11H16c0-4 1-9 3-12l9 1zm2 0l9-1c2 3 3 8 3 12H30V17zm0-2V3c4 3 6 7 8 11l-8 1zm10-2L33 2c5 1 11 4 15 8l-8 3zm-22 0l-8-3c4-4 10-7 15-8l-7 11zm-2 17h12v10l-10 2-2-12zm12 12v13c-4-3-7-7-9-12l9-1zm2 13V42l9 1c-2 5-5 9-9 12zm0-15V30h12l-2 12-10-2zm14-10h12c0 6-3 12-6 16l-8-4 2-12zM10 48l7-4 8 12c-6-1-11-4-15-8zm23 8l8-12 7 4c-4 4-9 7-15 8z"/></svg>
