<?xml version="1.0" encoding="utf-8"?>
<!-- Generator: Adobe Illustrator 21.1.0, SVG Export Plug-In . SVG Version: 6.00 Build 0)  -->
<svg version="1.1" id="Capa_1" xmlns="http://www.w3.org/2000/svg" xmlns:xlink="http://www.w3.org/1999/xlink" x="0px" y="0px"
	 viewBox="0 0 486.4 486.4" style="enable-background:new 0 0 486.4 486.4;" xml:space="preserve">
<style type="text/css">
	.st0{display:none;}
	.st1{display:inline;}
	.st2{fill:#010002;}
	.st3{fill:#FFFFFF;}
</style>
<g class="st0">
	<g class="st1">
		<g>
			<path class="st2" d="M395.2,0h-304C40.8,0,0,40.8,0,91.2v304c0,50.4,40.8,91.2,91.2,91.2h304c50.4,0,91.2-40.8,91.2-91.2v-304
				C486.4,40.8,445.6,0,395.2,0z M364.2,188.6l0.2,7.8c0,79.2-60.2,170.4-170.4,170.4c-33.8,0-65.3-9.9-91.8-26.9
				c4.7,0.5,9.5,0.9,14.3,0.9c28.1,0,53.9-9.6,74.4-25.6c-26.2-0.5-48.3-17.8-55.9-41.6c3.7,0.7,7.4,1,11.3,1
				c5.5,0,10.8-0.7,15.8-2.1c-27.4-5.5-48-29.7-48-58.7v-0.8c8.1,4.5,17.3,7.2,27.1,7.5c-16.1-10.7-26.6-29.1-26.6-49.8
				c0-11,2.9-21.2,8.1-30.1c29.5,36.2,73.7,60.1,123.4,62.6c-1-4.4-1.6-9-1.6-13.6c0-33,26.8-59.9,59.9-59.9
				c17.2,0,32.8,7.3,43.7,18.9c13.6-2.7,26.4-7.7,38-14.5c-4.5,14-14,25.7-26.3,33.1c12.1-1.4,23.7-4.7,34.4-9.4
				C386.1,169.7,375.9,180.2,364.2,188.6z"/>
		</g>
	</g>
</g>
<g>
	<g>
		<g>
			<path class="st2" d="M395.2,0h-304C40.8,0,0,40.8,0,91.2v304c0,50.4,40.8,91.2,91.2,91.2h304c50.4,0,91.2-40.8,91.2-91.2v-304
				C486.4,40.8,445.6,0,395.2,0z"/>
		</g>
	</g>
</g>
<g id="XMLID_1_" class="st0">
	<g class="st1">
		<path class="st3" d="M392.6,160.7c7,0,11.3,7.8,7.6,13.7L354.5,247c-3.9,6.3-3.3,14.3,1.5,19.9l42.8,49.2c5.5,6.3,1,16.1-7.3,16.1
			h-48.3c-7.6,0-15-2.9-20.6-8.1l-14.3-13.3c-16.1-14.1-23-19-29.5-19c-6.4,0-8.1,4.8-8.1,17.4c0,12.5-2.4,23-39.5,23
			s-66.2-27.8-98.9-71c-32.7-43.2-47.2-89.6-47.2-89.6c-1.8-5.8,2.5-11.7,8.6-11.7h38.6c7.4,0,14,4.3,17.1,10.9
			c3.2,6.9,8.6,17.4,17.9,33.1c13.2,22.2,25.9,32.2,33.1,36.4c2.7,1.6,6.1-0.4,6.1-3.5v-53.2c0-7-2.5-13.7-7.1-19l-5.5-6.3
			c-1.4-1.6-0.3-4.1,1.9-4.1h61.1c9.4,0,16.9,7.6,16.9,16.9v61.9c0,4,5.2,5.6,7.4,2.2l44-66.3c3.5-5.2,9.3-8.4,15.6-8.4H392.6z"/>
	</g>
	<g class="st1">
	</g>
</g>
<polygon class="st3" points="335.4,241.5 179,162.8 180.9,323.6 "/>
</svg>
