<?xml version="1.0" encoding="utf-8"?>
<!-- Generator: Adobe Illustrator 21.1.0, SVG Export Plug-In . SVG Version: 6.00 Build 0)  -->
<svg version="1.1" id="Capa_1" xmlns="http://www.w3.org/2000/svg" xmlns:xlink="http://www.w3.org/1999/xlink" x="0px" y="0px"
	 viewBox="0 0 486.4 486.4" style="enable-background:new 0 0 486.4 486.4;" xml:space="preserve">
<path d="M395.2,0h-304C40.8,0,0,40.8,0,91.2v304c0,50.4,40.8,91.2,91.2,91.2h304c50.4,0,91.2-40.8,91.2-91.2v-304
	C486.4,40.8,445.6,0,395.2,0z M356,266.9l42.8,49.2c5.5,6.3,1,16.1-7.3,16.1h-48.3c-7.6,0-15-2.9-20.6-8.1l-14.3-13.3
	c-16.1-14.1-23-19-29.5-19c-6.4,0-8.1,4.8-8.1,17.4c0,12.5-2.4,23-39.5,23c-37.1,0-66.2-27.8-98.9-71
	c-32.7-43.2-47.2-89.6-47.2-89.6c-1.8-5.8,2.5-11.7,8.6-11.7h38.6c7.4,0,14,4.3,17.1,10.9c3.2,6.9,8.6,17.4,17.9,33.1
	c13.2,22.2,25.9,32.2,33.1,36.4c2.7,1.6,6.1-0.4,6.1-3.5v-53.2c0-7-2.5-13.7-7.1-19l-5.5-6.3c-1.4-1.6-0.3-4.1,1.9-4.1h61.1
	c9.4,0,16.9,7.6,16.9,16.9V233c0,4,5.2,5.6,7.4,2.2l44-66.3c3.5-5.2,9.3-8.4,15.6-8.4h51.8v0.2c7,0,11.3,7.8,7.6,13.7L354.5,247
	C350.6,253.3,351.2,261.3,356,266.9z"/>
</svg>
